<?xml version="1.0" encoding="UTF-8"?>
<svg width="400" height="200" viewBox="0 0 400 200" fill="none" xmlns="http://www.w3.org/2000/svg">
  <!-- Background -->
  <rect width="400" height="200" rx="8" fill="#ECFDF5"/>
  
  <!-- PDF Document -->
  <rect x="80" y="50" width="100" height="120" rx="4" fill="white" stroke="#10B981" stroke-width="2"/>
  <rect x="90" y="70" width="80" height="10" rx="2" fill="#10B981"/>
  <rect x="90" y="90" width="60" height="10" rx="2" fill="#D1FAE5"/>
  <rect x="90" y="110" width="70" height="10" rx="2" fill="#D1FAE5"/>
  <rect x="90" y="130" width="50" height="10" rx="2" fill="#D1FAE5"/>
  
  <!-- Arrow -->
  <path d="M200 110L240 110" stroke="#10B981" stroke-width="2"/>
  <path d="M230 100L240 110L230 120" stroke="#10B981" stroke-width="2" stroke-linecap="round" stroke-linejoin="round"/>
  
  <!-- Processed Text -->
  <rect x="260" y="50" width="100" height="120" rx="4" fill="white" stroke="#10B981" stroke-width="2"/>
  <rect x="270" y="70" width="80" height="10" rx="2" fill="#D1FAE5"/>
  <rect x="270" y="90" width="60" height="10" rx="2" fill="#D1FAE5"/>
  <rect x="270" y="110" width="70" height="10" rx="2" fill="#D1FAE5"/>
  <rect x="270" y="130" width="50" height="10" rx="2" fill="#D1FAE5"/>
</svg> 